G04 #@! TF.FileFunction,Soldermask,Bot*
%FSLAX46Y46*%
G04 Gerber Fmt 4.6, Leading zero omitted, Abs format (unit mm)*
G04 Created by KiCad (PCBNEW no-vcs-found-undefined) date Thu Nov 10 22:23:41 2016*
%MOMM*%
%LPD*%
G01*
G04 APERTURE LIST*
%ADD10C,0.100000*%
%ADD11R,2.127200X2.127200*%
%ADD12O,2.127200X2.127200*%
%ADD13R,2.432000X2.127200*%
%ADD14O,2.432000X2.127200*%
%ADD15C,3.600000*%
%ADD16R,1.700000X1.700000*%
%ADD17C,1.700000*%
%ADD18C,2.398980*%
%ADD19R,2.398980X2.398980*%
%ADD20R,2.940000X2.940000*%
%ADD21C,2.940000*%
%ADD22O,2.899360X1.901140*%
%ADD23O,2.127200X2.432000*%
%ADD24R,2.127200X2.432000*%
%ADD25C,1.797000*%
%ADD26C,2.400000*%
G04 APERTURE END LIST*
D10*
D11*
X26670000Y-42888000D03*
D12*
X26670000Y-45428000D03*
X29210000Y-42888000D03*
X29210000Y-45428000D03*
X31750000Y-42888000D03*
X31750000Y-45428000D03*
X34290000Y-42888000D03*
X34290000Y-45428000D03*
D13*
X15240000Y-19520000D03*
D14*
X15240000Y-22060000D03*
X15240000Y-24600000D03*
X15240000Y-27140000D03*
X15240000Y-29680000D03*
X15240000Y-32220000D03*
X15240000Y-34760000D03*
X15240000Y-37300000D03*
X15240000Y-39840000D03*
X15240000Y-42380000D03*
X15240000Y-44920000D03*
X15240000Y-47460000D03*
D13*
X12700000Y-19520000D03*
D14*
X12700000Y-22060000D03*
X12700000Y-24600000D03*
X12700000Y-27140000D03*
X12700000Y-29680000D03*
X12700000Y-32220000D03*
X12700000Y-34760000D03*
X12700000Y-37300000D03*
X12700000Y-39840000D03*
X12700000Y-42380000D03*
X12700000Y-44920000D03*
X12700000Y-47460000D03*
D13*
X10160000Y-19520000D03*
D14*
X10160000Y-22060000D03*
X10160000Y-24600000D03*
X10160000Y-27140000D03*
X10160000Y-29680000D03*
X10160000Y-32220000D03*
X10160000Y-34760000D03*
X10160000Y-37300000D03*
X10160000Y-39840000D03*
X10160000Y-42380000D03*
X10160000Y-44920000D03*
X10160000Y-47460000D03*
D13*
X7620000Y-19520000D03*
D14*
X7620000Y-22060000D03*
X7620000Y-24600000D03*
X7620000Y-27140000D03*
X7620000Y-29680000D03*
X7620000Y-32220000D03*
X7620000Y-34760000D03*
X7620000Y-37300000D03*
X7620000Y-39840000D03*
X7620000Y-42380000D03*
X7620000Y-44920000D03*
X7620000Y-47460000D03*
D13*
X5080000Y-19520000D03*
D14*
X5080000Y-22060000D03*
X5080000Y-24600000D03*
X5080000Y-27140000D03*
X5080000Y-29680000D03*
X5080000Y-32220000D03*
X5080000Y-34760000D03*
X5080000Y-37300000D03*
X5080000Y-39840000D03*
X5080000Y-42380000D03*
X17780000Y-47460000D03*
X17780000Y-44920000D03*
X17780000Y-42380000D03*
X17780000Y-39840000D03*
X17780000Y-37300000D03*
X17780000Y-34760000D03*
X17780000Y-32220000D03*
X17780000Y-29680000D03*
X17780000Y-27140000D03*
X17780000Y-24600000D03*
X17780000Y-22060000D03*
D13*
X17780000Y-19520000D03*
D14*
X2540000Y-42380000D03*
X2540000Y-39840000D03*
X2540000Y-37300000D03*
X2540000Y-34760000D03*
X2540000Y-32220000D03*
X2540000Y-29680000D03*
X2540000Y-27140000D03*
X2540000Y-24600000D03*
X2540000Y-22060000D03*
D13*
X2540000Y-19520000D03*
D15*
X46000000Y-4000000D03*
X4000000Y-4000000D03*
X4000000Y-46000000D03*
D16*
X43942000Y-40308000D03*
D17*
X43942000Y-37808000D03*
D18*
X27178000Y-1486000D03*
D19*
X27178000Y-11646000D03*
D20*
X33528000Y-4280000D03*
D21*
X38608000Y-4280000D03*
D20*
X11176000Y-4280000D03*
D21*
X16256000Y-4280000D03*
X21336000Y-4280000D03*
D13*
X2540000Y-10376000D03*
D14*
X2540000Y-12916000D03*
X2540000Y-15456000D03*
D18*
X26924000Y-25108000D03*
X26924000Y-14948000D03*
X29972000Y-25108000D03*
X29972000Y-14948000D03*
X34036000Y-17996000D03*
X34036000Y-28156000D03*
D22*
X45720000Y-11900000D03*
X45720000Y-9360000D03*
X45720000Y-14440000D03*
D15*
X46000000Y-46000000D03*
D17*
X37592000Y-11392000D03*
D16*
X37592000Y-14892000D03*
D23*
X22098000Y-10884000D03*
X19558000Y-10884000D03*
D24*
X17018000Y-10884000D03*
X17018000Y-15456000D03*
D23*
X19558000Y-15456000D03*
X22098000Y-15456000D03*
X12192000Y-10884000D03*
X9652000Y-10884000D03*
D24*
X7112000Y-10884000D03*
X7112000Y-15456000D03*
D23*
X9652000Y-15456000D03*
X12192000Y-15456000D03*
D25*
X33020000Y-32728000D03*
X33020000Y-35268000D03*
D26*
X40744000Y-33236000D03*
X40744000Y-28736000D03*
X47244000Y-33236000D03*
X47244000Y-28736000D03*
X40665400Y-24600000D03*
X40665400Y-20100000D03*
X47165400Y-24600000D03*
X47165400Y-20100000D03*
M02*
