M48
;DRILL file {KiCad no-vcs-found-7587~57~ubuntu16.04.1} date Fri Feb  3 16:47:40 2017
;FORMAT={-:-/ absolute / metric / decimal}
FMAT,2
METRIC,TZ
T1C0.330
T2C0.800
T3C0.800
T4C0.813
T5C1.001
T6C1.016
T7C1.100
T8C1.270
T9C1.524
T10C3.200
%
G90
G05
M71
T1
X154.432Y-87.63
X154.775Y-84.747
X161.036Y-93.472
X162.052Y-105.156
X162.306Y-92.202
X167.894Y-110.998
X169.926Y-101.346
X171.958Y-99.314
T2
X172.212Y-75.692
X172.212Y-79.192
X172.98Y-109.6
X178.562Y-102.108
X178.562Y-104.608
T3
X175.48Y-109.6
T4
X167.64Y-97.028
X167.64Y-99.568
T5
X161.544Y-79.248
X161.544Y-89.408
X161.798Y-75.946
X164.592Y-79.248
X164.592Y-89.408
X168.656Y-82.296
X168.656Y-92.456
X180.34Y-73.66
X180.34Y-76.2
X180.34Y-78.74
T6
X137.16Y-74.676
X137.16Y-77.216
X137.16Y-79.756
X137.16Y-83.82
X137.16Y-86.36
X137.16Y-88.9
X137.16Y-91.44
X137.16Y-93.98
X137.16Y-96.52
X137.16Y-99.06
X137.16Y-101.6
X137.16Y-104.14
X137.16Y-106.68
X139.7Y-83.82
X139.7Y-86.36
X139.7Y-88.9
X139.7Y-91.44
X139.7Y-93.98
X139.7Y-96.52
X139.7Y-99.06
X139.7Y-101.6
X139.7Y-104.14
X139.7Y-106.68
X141.732Y-75.184
X141.732Y-79.756
X142.24Y-83.82
X142.24Y-86.36
X142.24Y-88.9
X142.24Y-91.44
X142.24Y-93.98
X142.24Y-96.52
X142.24Y-99.06
X142.24Y-101.6
X142.24Y-104.14
X142.24Y-106.68
X142.24Y-109.22
X142.24Y-111.76
X144.272Y-75.184
X144.272Y-79.756
X144.78Y-83.82
X144.78Y-86.36
X144.78Y-88.9
X144.78Y-91.44
X144.78Y-93.98
X144.78Y-96.52
X144.78Y-99.06
X144.78Y-101.6
X144.78Y-104.14
X144.78Y-106.68
X144.78Y-109.22
X144.78Y-111.76
X146.812Y-75.184
X146.812Y-79.756
X147.32Y-83.82
X147.32Y-86.36
X147.32Y-88.9
X147.32Y-91.44
X147.32Y-93.98
X147.32Y-96.52
X147.32Y-99.06
X147.32Y-101.6
X147.32Y-104.14
X147.32Y-106.68
X147.32Y-109.22
X147.32Y-111.76
X149.86Y-83.82
X149.86Y-86.36
X149.86Y-88.9
X149.86Y-91.44
X149.86Y-93.98
X149.86Y-96.52
X149.86Y-99.06
X149.86Y-101.6
X149.86Y-104.14
X149.86Y-106.68
X149.86Y-109.22
X149.86Y-111.76
X151.638Y-75.184
X151.638Y-79.756
X152.4Y-83.82
X152.4Y-86.36
X152.4Y-88.9
X152.4Y-91.44
X152.4Y-93.98
X152.4Y-96.52
X152.4Y-99.06
X152.4Y-101.6
X152.4Y-104.14
X152.4Y-106.68
X152.4Y-109.22
X152.4Y-111.76
X154.178Y-75.184
X154.178Y-79.756
X156.718Y-75.184
X156.718Y-79.756
X161.29Y-107.188
X161.29Y-109.728
X163.83Y-107.188
X163.83Y-109.728
X166.37Y-107.188
X166.37Y-109.728
X168.91Y-107.188
X168.91Y-109.728
T7
X175.285Y-84.4
X175.285Y-88.9
X175.364Y-93.036
X175.364Y-97.536
X181.785Y-84.4
X181.785Y-88.9
X181.864Y-93.036
X181.864Y-97.536
T8
X161.798Y-65.786
T9
X145.796Y-68.58
X150.876Y-68.58
X155.956Y-68.58
X168.148Y-68.58
X173.228Y-68.58
T10
X138.62Y-68.3
X138.62Y-110.3
X180.62Y-68.3
X180.62Y-110.3
T0
M30
