G04 #@! TF.FileFunction,Copper,L1,Top,Mixed*
%FSLAX46Y46*%
G04 Gerber Fmt 4.6, Leading zero omitted, Abs format (unit mm)*
G04 Created by KiCad (PCBNEW no-vcs-found-undefined) date Thu Nov 10 22:23:41 2016*
%MOMM*%
%LPD*%
G01*
G04 APERTURE LIST*
%ADD10C,0.100000*%
%ADD11R,1.727200X1.727200*%
%ADD12O,1.727200X1.727200*%
%ADD13R,2.032000X1.727200*%
%ADD14O,2.032000X1.727200*%
%ADD15R,1.300000X1.300000*%
%ADD16C,1.300000*%
%ADD17C,1.998980*%
%ADD18R,1.998980X1.998980*%
%ADD19R,2.540000X2.540000*%
%ADD20C,2.540000*%
%ADD21O,2.499360X1.501140*%
%ADD22O,1.727200X2.032000*%
%ADD23R,1.727200X2.032000*%
%ADD24C,1.397000*%
%ADD25C,2.000000*%
%ADD26C,0.685800*%
%ADD27C,0.254000*%
%ADD28C,0.812800*%
G04 APERTURE END LIST*
D10*
D11*
X26670000Y-42888000D03*
D12*
X26670000Y-45428000D03*
X29210000Y-42888000D03*
X29210000Y-45428000D03*
X31750000Y-42888000D03*
X31750000Y-45428000D03*
X34290000Y-42888000D03*
X34290000Y-45428000D03*
D13*
X15240000Y-19520000D03*
D14*
X15240000Y-22060000D03*
X15240000Y-24600000D03*
X15240000Y-27140000D03*
X15240000Y-29680000D03*
X15240000Y-32220000D03*
X15240000Y-34760000D03*
X15240000Y-37300000D03*
X15240000Y-39840000D03*
X15240000Y-42380000D03*
X15240000Y-44920000D03*
X15240000Y-47460000D03*
D13*
X12700000Y-19520000D03*
D14*
X12700000Y-22060000D03*
X12700000Y-24600000D03*
X12700000Y-27140000D03*
X12700000Y-29680000D03*
X12700000Y-32220000D03*
X12700000Y-34760000D03*
X12700000Y-37300000D03*
X12700000Y-39840000D03*
X12700000Y-42380000D03*
X12700000Y-44920000D03*
X12700000Y-47460000D03*
D13*
X10160000Y-19520000D03*
D14*
X10160000Y-22060000D03*
X10160000Y-24600000D03*
X10160000Y-27140000D03*
X10160000Y-29680000D03*
X10160000Y-32220000D03*
X10160000Y-34760000D03*
X10160000Y-37300000D03*
X10160000Y-39840000D03*
X10160000Y-42380000D03*
X10160000Y-44920000D03*
X10160000Y-47460000D03*
D13*
X7620000Y-19520000D03*
D14*
X7620000Y-22060000D03*
X7620000Y-24600000D03*
X7620000Y-27140000D03*
X7620000Y-29680000D03*
X7620000Y-32220000D03*
X7620000Y-34760000D03*
X7620000Y-37300000D03*
X7620000Y-39840000D03*
X7620000Y-42380000D03*
X7620000Y-44920000D03*
X7620000Y-47460000D03*
D13*
X5080000Y-19520000D03*
D14*
X5080000Y-22060000D03*
X5080000Y-24600000D03*
X5080000Y-27140000D03*
X5080000Y-29680000D03*
X5080000Y-32220000D03*
X5080000Y-34760000D03*
X5080000Y-37300000D03*
X5080000Y-39840000D03*
X5080000Y-42380000D03*
X17780000Y-47460000D03*
X17780000Y-44920000D03*
X17780000Y-42380000D03*
X17780000Y-39840000D03*
X17780000Y-37300000D03*
X17780000Y-34760000D03*
X17780000Y-32220000D03*
X17780000Y-29680000D03*
X17780000Y-27140000D03*
X17780000Y-24600000D03*
X17780000Y-22060000D03*
D13*
X17780000Y-19520000D03*
D14*
X2540000Y-42380000D03*
X2540000Y-39840000D03*
X2540000Y-37300000D03*
X2540000Y-34760000D03*
X2540000Y-32220000D03*
X2540000Y-29680000D03*
X2540000Y-27140000D03*
X2540000Y-24600000D03*
X2540000Y-22060000D03*
D13*
X2540000Y-19520000D03*
D15*
X43942000Y-40308000D03*
D16*
X43942000Y-37808000D03*
D17*
X27178000Y-1486000D03*
D18*
X27178000Y-11646000D03*
D19*
X33528000Y-4280000D03*
D20*
X38608000Y-4280000D03*
D19*
X11176000Y-4280000D03*
D20*
X16256000Y-4280000D03*
X21336000Y-4280000D03*
D13*
X2540000Y-10376000D03*
D14*
X2540000Y-12916000D03*
X2540000Y-15456000D03*
D17*
X26924000Y-25108000D03*
X26924000Y-14948000D03*
X29972000Y-25108000D03*
X29972000Y-14948000D03*
X34036000Y-17996000D03*
X34036000Y-28156000D03*
D21*
X45720000Y-11900000D03*
X45720000Y-9360000D03*
X45720000Y-14440000D03*
D16*
X37592000Y-11392000D03*
D15*
X37592000Y-14892000D03*
D22*
X22098000Y-10884000D03*
X19558000Y-10884000D03*
D23*
X17018000Y-10884000D03*
X17018000Y-15456000D03*
D22*
X19558000Y-15456000D03*
X22098000Y-15456000D03*
X12192000Y-10884000D03*
X9652000Y-10884000D03*
D23*
X7112000Y-10884000D03*
X7112000Y-15456000D03*
D22*
X9652000Y-15456000D03*
X12192000Y-15456000D03*
D24*
X33020000Y-32728000D03*
X33020000Y-35268000D03*
D25*
X40744000Y-33236000D03*
X40744000Y-28736000D03*
X47244000Y-33236000D03*
X47244000Y-28736000D03*
X40665400Y-24600000D03*
X40665400Y-20100000D03*
X47165400Y-24600000D03*
X47165400Y-20100000D03*
D26*
X20154899Y-20447101D03*
X19812000Y-23330000D03*
X27432000Y-40856000D03*
X26416000Y-29172000D03*
X27686000Y-27902000D03*
X33274000Y-46698000D03*
X35306000Y-37046000D03*
X37338000Y-35014000D03*
D27*
X26924000Y-39840000D02*
X27178000Y-39840000D01*
D28*
X34290000Y-45428000D02*
X35153599Y-44564401D01*
X35153599Y-44564401D02*
X36444799Y-44564401D01*
X36444799Y-44564401D02*
X40701200Y-40308000D01*
X35594291Y-35201091D02*
X40701200Y-40308000D01*
X40701200Y-40308000D02*
X43942000Y-40308000D01*
X33020000Y-35268000D02*
X34007828Y-35268000D01*
X34007828Y-35268000D02*
X34074737Y-35201091D01*
X34074737Y-35201091D02*
X35594291Y-35201091D01*
X15240000Y-19520000D02*
X17780000Y-19520000D01*
X12700000Y-19520000D02*
X15240000Y-19520000D01*
X34036000Y-17996000D02*
X35594291Y-19554291D01*
X35594291Y-19554291D02*
X35594291Y-35201091D01*
X29972000Y-14948000D02*
X30988000Y-14948000D01*
X30988000Y-14948000D02*
X34036000Y-17996000D01*
X26924000Y-14948000D02*
X29972000Y-14948000D01*
X22352000Y-6108801D02*
X21640799Y-6108801D01*
X35245041Y-6108801D02*
X22352000Y-6108801D01*
X25924511Y-13948511D02*
X26924000Y-14948000D01*
X22352000Y-6108801D02*
X23520410Y-7277211D01*
X23520410Y-7277211D02*
X23520410Y-11544410D01*
X23520410Y-11544410D02*
X25924511Y-13948511D01*
X17018000Y-10884000D02*
X17018000Y-15456000D01*
X7112000Y-10884000D02*
X7112000Y-15456000D01*
X15087601Y-6108801D02*
X11734799Y-6108801D01*
X11734799Y-6108801D02*
X7112000Y-10731600D01*
X7112000Y-10731600D02*
X7112000Y-10884000D01*
X21640799Y-6108801D02*
X15087601Y-6108801D01*
X15087601Y-6108801D02*
X13258800Y-4280000D01*
X13258800Y-4280000D02*
X11176000Y-4280000D01*
X36576000Y-4777842D02*
X35245041Y-6108801D01*
X21640799Y-6108801D02*
X17018000Y-10731600D01*
X17018000Y-10731600D02*
X17018000Y-10884000D01*
X36576000Y-3605374D02*
X36576000Y-4777842D01*
X45720000Y-14440000D02*
X45720000Y-14250852D01*
X45720000Y-14250852D02*
X47528490Y-12442362D01*
X47528490Y-12442362D02*
X47528490Y-8817638D01*
X47528490Y-8817638D02*
X41162051Y-2451199D01*
X37730175Y-2451199D02*
X36576000Y-3605374D01*
X41162051Y-2451199D02*
X37730175Y-2451199D01*
X33528000Y-4280000D02*
X33528000Y-2197200D01*
X33528000Y-2197200D02*
X32816800Y-1486000D01*
X32816800Y-1486000D02*
X28591492Y-1486000D01*
X28591492Y-1486000D02*
X27178000Y-1486000D01*
D27*
X2540000Y-12916000D02*
X1270000Y-12916000D01*
X1270000Y-12916000D02*
X1244590Y-12941410D01*
X1244590Y-12941410D02*
X1244590Y-46026104D01*
X1244590Y-46026104D02*
X3821496Y-48603010D01*
X3821496Y-48603010D02*
X23494990Y-48603010D01*
X23494990Y-48603010D02*
X25806401Y-46291599D01*
X25806401Y-46291599D02*
X26670000Y-45428000D01*
X2540000Y-15456000D02*
X3810000Y-15456000D01*
X28828999Y-44284999D02*
X32893001Y-44284999D01*
X3810000Y-15456000D02*
X6730999Y-18376999D01*
X6730999Y-18376999D02*
X19019521Y-18376999D01*
X28066999Y-43522999D02*
X28828999Y-44284999D01*
X19019521Y-18376999D02*
X19075401Y-18432879D01*
X19075401Y-18432879D02*
X19075401Y-20607121D01*
X19075401Y-20607121D02*
X28066999Y-29598719D01*
X28066999Y-29598719D02*
X28066999Y-43522999D01*
X32893001Y-44284999D02*
X33426401Y-43751599D01*
X33426401Y-43751599D02*
X34290000Y-42888000D01*
D28*
X37592000Y-14892000D02*
X37592000Y-13429200D01*
X37592000Y-13429200D02*
X39121200Y-11900000D01*
X39121200Y-11900000D02*
X43657520Y-11900000D01*
X43657520Y-11900000D02*
X45720000Y-11900000D01*
X27178000Y-11646000D02*
X35808800Y-11646000D01*
X35808800Y-11646000D02*
X37592000Y-13429200D01*
D27*
X20154899Y-20447101D02*
X20154899Y-17754701D01*
X20154899Y-17754701D02*
X20929600Y-16980000D01*
X19710400Y-43142000D02*
X19710400Y-23431600D01*
X19710400Y-23431600D02*
X19812000Y-23330000D01*
X17932400Y-44920000D02*
X19710400Y-43142000D01*
X17780000Y-44920000D02*
X17932400Y-44920000D01*
X16256000Y-4280000D02*
X14706599Y-2730599D01*
X5968999Y-6439001D02*
X5968999Y-16695521D01*
X14706599Y-2730599D02*
X9677401Y-2730599D01*
X9677401Y-2730599D02*
X5968999Y-6439001D01*
X5968999Y-16695521D02*
X6024879Y-16751401D01*
X6024879Y-16751401D02*
X8508999Y-16751401D01*
X8508999Y-16751401D02*
X9652000Y-15608400D01*
X9652000Y-15608400D02*
X9652000Y-15456000D01*
X9652000Y-15456000D02*
X9652000Y-14186000D01*
X9652000Y-14186000D02*
X9652000Y-10884000D01*
X19558000Y-15456000D02*
X19558000Y-15608400D01*
X18414990Y-16751410D02*
X10795010Y-16751410D01*
X19558000Y-15608400D02*
X18414990Y-16751410D01*
X10795010Y-16751410D02*
X9652000Y-15608400D01*
X19558000Y-15456000D02*
X19558000Y-10884000D01*
X31127240Y-16980000D02*
X20929600Y-16980000D01*
X20929600Y-16980000D02*
X19558000Y-15608400D01*
X34036000Y-28156000D02*
X34036000Y-19888760D01*
X34036000Y-19888760D02*
X31127240Y-16980000D01*
X29210000Y-42888000D02*
X29210000Y-32982000D01*
X29210000Y-32982000D02*
X34036000Y-28156000D01*
X26416000Y-29172000D02*
X27584410Y-30340410D01*
X27584410Y-30340410D02*
X27584410Y-40703590D01*
X27584410Y-40703590D02*
X27432000Y-40856000D01*
X29972000Y-25108000D02*
X27686000Y-27394000D01*
X27686000Y-27394000D02*
X27686000Y-27902000D01*
X17780000Y-47460000D02*
X20955001Y-44284999D01*
X20955001Y-44284999D02*
X27218641Y-44284999D01*
X27218641Y-44284999D02*
X27813001Y-44879359D01*
X28448000Y-46698000D02*
X33274000Y-46698000D01*
X27813001Y-44879359D02*
X27813001Y-46063001D01*
X27813001Y-46063001D02*
X28448000Y-46698000D01*
X35306000Y-37046000D02*
X34821067Y-37046000D01*
X31750000Y-41666686D02*
X31750000Y-42888000D01*
X34821067Y-37046000D02*
X31750000Y-40117067D01*
X31750000Y-40117067D02*
X31750000Y-41666686D01*
X40744000Y-33236000D02*
X39116000Y-33236000D01*
X39116000Y-33236000D02*
X37338000Y-35014000D01*
D28*
X47244000Y-33236000D02*
X40744000Y-33236000D01*
X47165400Y-24600000D02*
X40665400Y-24600000D01*
M02*
