M48
;DRILL file {KiCad no-vcs-found-7587~57~ubuntu16.04.1} date Fri Feb  3 16:58:19 2017
;FORMAT={-:-/ absolute / metric / decimal}
FMAT,2
METRIC,TZ
T1C0.330
T2C0.800
T3C0.800
T4C0.813
T5C1.001
T6C1.016
T7C1.100
T8C1.270
T9C1.524
T10C3.200
%
G90
G05
M71
T1
X19.812Y-23.33
X20.155Y-20.447
X26.416Y-29.172
X27.432Y-40.856
X27.686Y-27.902
X33.274Y-46.698
X35.306Y-37.046
X37.338Y-35.014
T2
X37.592Y-11.392
X37.592Y-14.892
X38.36Y-45.3
X43.942Y-37.808
X43.942Y-40.308
T3
X40.86Y-45.3
T4
X33.02Y-32.728
X33.02Y-35.268
T5
X26.924Y-14.948
X26.924Y-25.108
X27.178Y-11.646
X29.972Y-14.948
X29.972Y-25.108
X34.036Y-17.996
X34.036Y-28.156
X45.72Y-9.36
X45.72Y-11.9
X45.72Y-14.44
T6
X2.54Y-10.376
X2.54Y-12.916
X2.54Y-15.456
X2.54Y-19.52
X2.54Y-22.06
X2.54Y-24.6
X2.54Y-27.14
X2.54Y-29.68
X2.54Y-32.22
X2.54Y-34.76
X2.54Y-37.3
X2.54Y-39.84
X2.54Y-42.38
X5.08Y-19.52
X5.08Y-22.06
X5.08Y-24.6
X5.08Y-27.14
X5.08Y-29.68
X5.08Y-32.22
X5.08Y-34.76
X5.08Y-37.3
X5.08Y-39.84
X5.08Y-42.38
X7.112Y-10.884
X7.112Y-15.456
X7.62Y-19.52
X7.62Y-22.06
X7.62Y-24.6
X7.62Y-27.14
X7.62Y-29.68
X7.62Y-32.22
X7.62Y-34.76
X7.62Y-37.3
X7.62Y-39.84
X7.62Y-42.38
X7.62Y-44.92
X7.62Y-47.46
X9.652Y-10.884
X9.652Y-15.456
X10.16Y-19.52
X10.16Y-22.06
X10.16Y-24.6
X10.16Y-27.14
X10.16Y-29.68
X10.16Y-32.22
X10.16Y-34.76
X10.16Y-37.3
X10.16Y-39.84
X10.16Y-42.38
X10.16Y-44.92
X10.16Y-47.46
X12.192Y-10.884
X12.192Y-15.456
X12.7Y-19.52
X12.7Y-22.06
X12.7Y-24.6
X12.7Y-27.14
X12.7Y-29.68
X12.7Y-32.22
X12.7Y-34.76
X12.7Y-37.3
X12.7Y-39.84
X12.7Y-42.38
X12.7Y-44.92
X12.7Y-47.46
X15.24Y-19.52
X15.24Y-22.06
X15.24Y-24.6
X15.24Y-27.14
X15.24Y-29.68
X15.24Y-32.22
X15.24Y-34.76
X15.24Y-37.3
X15.24Y-39.84
X15.24Y-42.38
X15.24Y-44.92
X15.24Y-47.46
X17.018Y-10.884
X17.018Y-15.456
X17.78Y-19.52
X17.78Y-22.06
X17.78Y-24.6
X17.78Y-27.14
X17.78Y-29.68
X17.78Y-32.22
X17.78Y-34.76
X17.78Y-37.3
X17.78Y-39.84
X17.78Y-42.38
X17.78Y-44.92
X17.78Y-47.46
X19.558Y-10.884
X19.558Y-15.456
X22.098Y-10.884
X22.098Y-15.456
X26.67Y-42.888
X26.67Y-45.428
X29.21Y-42.888
X29.21Y-45.428
X31.75Y-42.888
X31.75Y-45.428
X34.29Y-42.888
X34.29Y-45.428
T7
X40.665Y-20.1
X40.665Y-24.6
X40.744Y-28.736
X40.744Y-33.236
X47.165Y-20.1
X47.165Y-24.6
X47.244Y-28.736
X47.244Y-33.236
T8
X27.178Y-1.486
T9
X11.176Y-4.28
X16.256Y-4.28
X21.336Y-4.28
X33.528Y-4.28
X38.608Y-4.28
T10
X4.Y-4.
X4.Y-46.
X46.Y-4.
X46.Y-46.
T0
M30
