M48
INCH,TZ
T10C0.126
T11C0.013
T12C0.031
T13C0.032
T14C0.039
T15C0.040
T16C0.043
T17C0.050
T18C0.060
%
T10
X001575Y-01575
X001575Y-18110
X018110Y-01575
X018110Y-18110
T11
X007800Y-09185
X007935Y-08050
X010400Y-11485
X010800Y-16085
X010900Y-10985
X013100Y-18385
X013900Y-14585
X014700Y-13785
T12
X014800Y-04485
X014800Y-05863
X017300Y-14885
X017300Y-15869
T13
X013000Y-12885
X013000Y-13885
T14
X010600Y-05885
X010600Y-09885
X010700Y-04585
X011800Y-05885
X011800Y-09885
X013400Y-07085
X013400Y-11085
X018000Y-03685
X018000Y-04685
X018000Y-05685
T15
X001000Y-04085
X001000Y-05085
X001000Y-06085
X001000Y-07685
X001000Y-08685
X001000Y-09685
X001000Y-10685
X001000Y-11685
X001000Y-12685
X001000Y-13685
X001000Y-14685
X001000Y-15685
X001000Y-16685
X002000Y-07685
X002000Y-08685
X002000Y-09685
X002000Y-10685
X002000Y-11685
X002000Y-12685
X002000Y-13685
X002000Y-14685
X002000Y-15685
X002000Y-16685
X002800Y-04285
X002800Y-06085
X003000Y-07685
X003000Y-08685
X003000Y-09685
X003000Y-10685
X003000Y-11685
X003000Y-12685
X003000Y-13685
X003000Y-14685
X003000Y-15685
X003000Y-16685
X003000Y-17685
X003000Y-18685
X003800Y-04285
X003800Y-06085
X004000Y-07685
X004000Y-08685
X004000Y-09685
X004000Y-10685
X004000Y-11685
X004000Y-12685
X004000Y-13685
X004000Y-14685
X004000Y-15685
X004000Y-16685
X004000Y-17685
X004000Y-18685
X004800Y-04285
X004800Y-06085
X005000Y-07685
X005000Y-08685
X005000Y-09685
X005000Y-10685
X005000Y-11685
X005000Y-12685
X005000Y-13685
X005000Y-14685
X005000Y-15685
X005000Y-16685
X005000Y-17685
X005000Y-18685
X006000Y-07685
X006000Y-08685
X006000Y-09685
X006000Y-10685
X006000Y-11685
X006000Y-12685
X006000Y-13685
X006000Y-14685
X006000Y-15685
X006000Y-16685
X006000Y-17685
X006000Y-18685
X006700Y-04285
X006700Y-06085
X007000Y-07685
X007000Y-08685
X007000Y-09685
X007000Y-10685
X007000Y-11685
X007000Y-12685
X007000Y-13685
X007000Y-14685
X007000Y-15685
X007000Y-16685
X007000Y-17685
X007000Y-18685
X007700Y-04285
X007700Y-06085
X008700Y-04285
X008700Y-06085
X010500Y-16885
X010500Y-17885
X011500Y-16885
X011500Y-17885
X012500Y-16885
X012500Y-17885
X013500Y-16885
X013500Y-17885
T16
X016010Y-07913
X016010Y-09685
X016041Y-11313
X016041Y-13085
X018569Y-07913
X018569Y-09685
X018600Y-11313
X018600Y-13085
T17
X010700Y-00585
T18
X004400Y-01685
X006400Y-01685
X008400Y-01685
X013200Y-01685
X015200Y-01685
M30

